<svg data-v-423bf9ae="" xmlns="http://www.w3.org/2000/svg" viewBox="0 0 334 90" class="iconLeftSlogan"><!----><!----><!----><g data-v-423bf9ae="" id="9da4f06f-d0ad-4099-a0b9-a96111b9ed01" fill="white" transform="matrix(4.608295106398049,0,0,4.608295106398049,104.65437025379629,-16.728111286765277)"><path d="M1.16 16.65L2.76 16.65L2.76 14.36L2.72 13.09C3.28 13.64 3.98 13.96 4.61 13.96C6.20 13.96 7.66 12.53 7.66 10.09C7.66 7.88 6.64 6.45 4.86 6.45C4.06 6.45 3.23 6.89 2.65 7.46L2.60 7.46L2.48 6.64L1.16 6.64ZM4.27 12.63C3.86 12.63 3.28 12.43 2.76 11.94L2.76 8.68C3.33 8.06 3.88 7.78 4.41 7.78C5.52 7.78 6.01 8.67 6.01 10.11C6.01 11.75 5.26 12.63 4.27 12.63ZM13.02 13.96C14.03 13.96 14.98 13.59 15.71 13.12L15.16 12.11C14.55 12.49 13.94 12.70 13.23 12.70C11.98 12.70 11.02 11.96 10.92 10.64L15.92 10.64C15.95 10.46 15.99 10.15 15.99 9.84C15.99 7.87 14.85 6.45 12.81 6.45C11.00 6.45 9.27 7.88 9.27 10.21C9.27 12.56 10.93 13.96 13.02 13.96ZM10.91 9.53C11.09 8.34 11.91 7.70 12.84 7.70C13.93 7.70 14.52 8.39 14.52 9.53ZM21 13.96C22.82 13.96 24.46 12.59 24.46 10.21C24.46 7.83 22.82 6.45 21 6.45C19.19 6.45 17.56 7.83 17.56 10.21C17.56 12.59 19.19 13.96 21 13.96ZM21 12.64C19.88 12.64 19.21 11.68 19.21 10.21C19.21 8.75 19.88 7.77 21 7.77C22.13 7.77 22.81 8.75 22.81 10.21C22.81 11.68 22.13 12.64 21 12.64ZM26.36 16.65L27.96 16.65L27.96 14.36L27.92 13.09C28.48 13.64 29.18 13.96 29.81 13.96C31.40 13.96 32.86 12.53 32.86 10.09C32.86 7.88 31.84 6.45 30.06 6.45C29.26 6.45 28.43 6.89 27.85 7.46L27.80 7.46L27.68 6.64L26.36 6.64ZM29.47 12.63C29.06 12.63 28.48 12.43 27.96 11.94L27.96 8.68C28.53 8.06 29.08 7.78 29.61 7.78C30.72 7.78 31.21 8.67 31.21 10.11C31.21 11.75 30.46 12.63 29.47 12.63ZM39.21 13.96C40.01 13.96 40.50 13.78 41.17 13.54L40.80 12.35C40.32 12.56 39.96 12.64 39.61 12.64C38.91 12.64 38.37 12.26 38.37 11.30L38.37 3.63L34.61 3.63L34.61 4.90L36.78 4.90L36.78 11.20C36.78 12.95 37.62 13.96 39.21 13.96ZM46.62 13.96C47.63 13.96 48.58 13.59 49.31 13.12L48.76 12.11C48.15 12.49 47.54 12.70 46.83 12.70C45.58 12.70 44.62 11.96 44.52 10.64L49.52 10.64C49.55 10.46 49.59 10.15 49.59 9.84C49.59 7.87 48.45 6.45 46.41 6.45C44.60 6.45 42.87 7.88 42.87 10.21C42.87 12.56 44.53 13.96 46.62 13.96ZM44.51 9.53C44.69 8.34 45.51 7.70 46.44 7.70C47.53 7.70 48.12 8.39 48.12 9.53Z"></path></g><!----><g data-v-423bf9ae="" id="13b9d1f8-66ae-4349-a170-85cba5cfc45c" transform="matrix(2.8125,0,0,2.8125,0,0)" stroke="none" fill="white"><path d="M15.965 16.258l.707-.707 10.39 10.39-.707.707z"></path><path d="M4.935 26.357L26.018 5.274l.707.707L5.642 27.065z"></path><path d="M31 1v4.194h-4.194V1H31m1-1h-6.194v6.194H32V0zM31 26.806V31h-4.194v-4.194H31m1-1h-6.194V32H32v-6.194zM5.194 26.806V31H1v-4.194h4.194m1-1H0V32h6.194v-6.194z"></path></g><!----><g data-v-423bf9ae="" id="4c57bc0e-b586-454f-9e5c-75f268b9e52b" fill="white" transform="matrix(1.438013792142146,0,0,1.438013792142146,105.78662606793007,53.11191243410379)"><path d="M6.58 10.35L6.58 10.35L6.58 10.35Q7.63 9.20 8.46 7.91L8.46 7.91L8.46 7.91Q9.30 6.62 10.01 5.01L10.01 5.01L10.01 5.01Q10.37 5.05 10.71 5.21L10.71 5.21L10.71 5.21Q11.05 5.36 11.24 5.56L11.24 5.56L11.24 5.56Q10.47 6.48 9.85 7.24L9.85 7.24L9.85 7.24Q9.23 7.99 8.71 8.66L8.71 8.66L8.71 8.66Q8.19 9.32 7.75 9.93L7.75 9.93L7.75 9.93Q7.31 10.54 6.89 11.16L6.89 11.16L6.89 11.16Q6.68 11.87 6.50 12.60L6.50 12.60L6.50 12.60Q6.31 13.33 6.17 13.99L6.17 13.99L6.17 13.99Q6.03 14.66 5.96 15.22L5.96 15.22L5.96 15.22Q5.88 15.79 5.88 16.20L5.88 16.20L5.88 16.20Q5.73 16.20 5.39 16.14L5.39 16.14L5.39 16.14Q5.05 16.07 4.70 15.99L4.70 15.99L4.70 15.99Q4.35 15.90 4.07 15.82L4.07 15.82L4.07 15.82Q3.78 15.74 3.72 15.68L3.72 15.68L3.72 15.68Q3.95 15.30 4.17 14.75L4.17 14.75L4.17 14.75Q4.38 14.20 4.59 13.59L4.59 13.59L4.59 13.59Q4.80 12.98 5.00 12.36L5.00 12.36L5.00 12.36Q5.19 11.73 5.36 11.20L5.36 11.20L5.36 11.20Q5.01 10.11 4.68 9.15L4.68 9.15L4.68 9.15Q4.35 8.19 4.05 7.41L4.05 7.41L4.05 7.41Q3.74 6.64 3.46 6.08L3.46 6.08L3.46 6.08Q3.18 5.52 2.93 5.22L2.93 5.22L2.93 5.22Q3.07 5.17 3.35 5.11L3.35 5.11L3.35 5.11Q3.64 5.05 3.98 5.00L3.98 5.00L3.98 5.00Q4.33 4.94 4.68 4.91L4.68 4.91L4.68 4.91Q5.04 4.87 5.32 4.86L5.32 4.86L5.32 4.86Q5.32 5.21 5.38 5.71L5.38 5.71L5.38 5.71Q5.45 6.22 5.55 6.79L5.55 6.79L5.55 6.79Q5.66 7.36 5.80 7.95L5.80 7.95L5.80 7.95Q5.94 8.54 6.08 9.03L6.08 9.03L6.08 9.03Q6.22 9.52 6.35 9.88L6.35 9.88L6.35 9.88Q6.48 10.23 6.58 10.35ZM23.23 4.98L23.23 4.98L23.23 4.98Q23.49 5.10 23.77 5.27L23.77 5.27L23.77 5.27Q24.05 5.45 24.29 5.63L24.29 5.63L24.29 5.63Q24.53 5.81 24.69 5.98L24.69 5.98L24.69 5.98Q24.85 6.16 24.86 6.27L24.86 6.27L24.86 6.27Q24.63 6.22 24.39 6.20L24.39 6.20L24.39 6.20Q24.15 6.17 23.95 6.17L23.95 6.17L23.95 6.17Q23.32 6.17 22.70 6.48L22.70 6.48L22.70 6.48Q22.08 6.79 21.52 7.32L21.52 7.32L21.52 7.32Q20.96 7.85 20.48 8.57L20.48 8.57L20.48 8.57Q20.01 9.28 19.66 10.09L19.66 10.09L19.66 10.09Q19.32 10.91 19.12 11.77L19.12 11.77L19.12 11.77Q18.93 12.64 18.93 13.48L18.93 13.48L18.93 13.48Q18.93 14.57 19.29 15.11L19.29 15.11L19.29 15.11Q19.66 15.64 20.36 15.64L20.36 15.64L20.36 15.64Q20.69 15.64 21.08 15.51L21.08 15.51L21.08 15.51Q21.48 15.37 21.88 15.13L21.88 15.13L21.88 15.13Q22.29 14.90 22.68 14.56L22.68 14.56L22.68 14.56Q23.07 14.22 23.41 13.82L23.41 13.82L23.41 13.82Q23.90 13.23 24.29 12.48L24.29 12.48L24.29 12.48Q24.68 11.73 24.95 10.89L24.95 10.89L24.95 10.89Q25.23 10.05 25.38 9.16L25.38 9.16L25.38 9.16Q25.52 8.27 25.52 7.42L25.52 7.42L25.52 7.42Q25.52 7.08 25.51 6.85L25.51 6.85L25.51 6.85Q25.49 6.62 25.47 6.46L25.47 6.46L25.47 6.46Q25.45 6.30 25.44 6.20L25.44 6.20L25.44 6.20Q25.42 6.10 25.41 6.03L25.41 6.03L25.41 6.03Q25.58 6.12 25.78 6.24L25.78 6.24L25.78 6.24Q25.98 6.36 26.16 6.59L26.16 6.59L26.16 6.59Q26.33 6.82 26.45 7.20L26.45 7.20L26.45 7.20Q26.57 7.57 26.57 8.18L26.57 8.18L26.57 8.18Q26.57 9.16 26.34 10.10L26.34 10.10L26.34 10.10Q26.11 11.05 25.70 11.90L25.70 11.90L25.70 11.90Q25.28 12.75 24.72 13.50L24.72 13.50L24.72 13.50Q24.16 14.24 23.52 14.80L23.52 14.80L23.52 14.80Q22.68 15.54 21.73 15.95L21.73 15.95L21.73 15.95Q20.78 16.35 19.89 16.35L19.89 16.35L19.89 16.35Q18.61 16.35 17.93 15.53L17.93 15.53L17.93 15.53Q17.25 14.71 17.25 13.12L17.25 13.12L17.25 13.12Q17.25 12.26 17.44 11.31L17.44 11.31L17.44 11.31Q17.63 10.36 17.97 9.44L17.97 9.44L17.97 9.44Q18.31 8.51 18.79 7.68L18.79 7.68L18.79 7.68Q19.26 6.85 19.83 6.21L19.83 6.21L19.83 6.21Q20.40 5.57 21.05 5.19L21.05 5.19L21.05 5.19Q21.70 4.82 22.39 4.82L22.39 4.82L22.39 4.82Q22.61 4.82 22.81 4.85L22.81 4.85L22.81 4.85Q23.00 4.89 23.23 4.98ZM39.27 5.75L39.27 5.75L39.27 5.75Q38.65 6.58 38.15 7.57L38.15 7.57L38.15 7.57Q37.65 8.57 37.29 9.61L37.29 9.61L37.29 9.61Q36.93 10.65 36.74 11.67L36.74 11.67L36.74 11.67Q36.55 12.68 36.55 13.57L36.55 13.57L36.55 13.57Q36.55 14.66 36.88 15.15L36.88 15.15L36.88 15.15Q37.20 15.64 37.98 15.64L37.98 15.64L37.98 15.64Q38.89 15.64 39.58 15.00L39.58 15.00L39.58 15.00Q40.26 14.36 40.87 13.24L40.87 13.24L40.87 13.24Q41.26 12.52 41.54 11.65L41.54 11.65L41.54 11.65Q41.82 10.78 41.99 9.86L41.99 9.86L41.99 9.86Q42.17 8.95 42.25 8.02L42.25 8.02L42.25 8.02Q42.34 7.08 42.34 6.23L42.34 6.23L42.34 6.23Q42.34 5.68 42.32 5.43L42.32 5.43L42.32 5.43Q42.31 5.18 42.28 5.03L42.28 5.03L42.28 5.03Q42.32 5.03 42.49 5.05L42.49 5.05L42.49 5.05Q42.66 5.08 42.88 5.12L42.88 5.12L42.88 5.12Q43.09 5.17 43.31 5.24L43.31 5.24L43.31 5.24Q43.53 5.31 43.68 5.39L43.68 5.39L43.68 5.39Q43.61 6.45 43.42 7.59L43.42 7.59L43.42 7.59Q43.23 8.72 42.92 9.83L42.92 9.83L42.92 9.83Q42.62 10.93 42.21 11.96L42.21 11.96L42.21 11.96Q41.80 12.98 41.30 13.79L41.30 13.79L41.30 13.79Q40.56 14.99 39.63 15.67L39.63 15.67L39.63 15.67Q38.71 16.35 37.45 16.35L37.45 16.35L37.45 16.35Q36.16 16.35 35.45 15.60L35.45 15.60L35.45 15.60Q34.73 14.85 34.73 13.33L34.73 13.33L34.73 13.33Q34.73 12.45 34.93 11.33L34.93 11.33L34.93 11.33Q35.13 10.22 35.46 9.07L35.46 9.07L35.46 9.07Q35.78 7.91 36.22 6.81L36.22 6.81L36.22 6.81Q36.65 5.71 37.13 4.84L37.13 4.84L37.13 4.84Q37.37 4.86 37.69 4.94L37.69 4.94L37.69 4.94Q38.01 5.03 38.32 5.16L38.32 5.16L38.32 5.16Q38.63 5.29 38.89 5.45L38.89 5.45L38.89 5.45Q39.14 5.61 39.27 5.75ZM59.78 5.74L59.78 5.74L59.78 5.74Q59.82 5.98 59.84 6.07L59.84 6.07L59.84 6.07Q59.86 6.16 59.86 6.31L59.86 6.31L59.86 6.31Q59.86 6.78 59.66 7.18L59.66 7.18L59.66 7.18Q59.46 7.57 59.11 7.74L59.11 7.74L59.11 7.74Q58.83 7.36 58.42 7.09L58.42 7.09L58.42 7.09Q58.02 6.82 57.53 6.64L57.53 6.64L57.53 6.64Q57.05 6.47 56.53 6.38L56.53 6.38L56.53 6.38Q56.01 6.30 55.52 6.30L55.52 6.30L55.52 6.30Q55.03 6.30 54.61 6.38L54.61 6.38L54.61 6.38Q54.18 6.45 53.85 6.59L53.85 6.59L53.85 6.59Q53.52 6.72 53.33 6.92L53.33 6.92L53.33 6.92Q53.14 7.11 53.14 7.36L53.14 7.36L53.14 7.36Q53.19 7.67 53.52 7.99L53.52 7.99L53.52 7.99Q53.86 8.30 54.35 8.60L54.35 8.60L54.35 8.60Q54.84 8.90 55.43 9.20L55.43 9.20L55.43 9.20Q56.03 9.49 56.60 9.76L56.60 9.76L56.60 9.76Q57.32 10.09 57.83 10.38L57.83 10.38L57.83 10.38Q58.35 10.67 58.69 11.01L58.69 11.01L58.69 11.01Q59.02 11.35 59.19 11.79L59.19 11.79L59.19 11.79Q59.36 12.22 59.36 12.84L59.36 12.84L59.36 12.84Q59.36 13.55 59.12 14.18L59.12 14.18L59.12 14.18Q58.88 14.80 58.43 15.26L58.43 15.26L58.43 15.26Q57.97 15.72 57.33 15.98L57.33 15.98L57.33 15.98Q56.69 16.24 55.89 16.24L55.89 16.24L55.89 16.24Q55.10 16.24 54.19 16.00L54.19 16.00L54.19 16.00Q53.28 15.76 52.49 15.35L52.49 15.35L52.49 15.35Q51.70 14.94 51.18 14.40L51.18 14.40L51.18 14.40Q50.65 13.86 50.65 13.26L50.65 13.26L50.65 13.26Q50.65 12.98 50.81 12.54L50.81 12.54L50.81 12.54Q50.97 12.11 51.39 11.63L51.39 11.63L51.39 11.63Q51.44 12.05 51.85 12.63L51.85 12.63L51.85 12.63Q52.26 13.20 53.09 13.69L53.09 13.69L53.09 13.69Q53.86 14.14 54.68 14.34L54.68 14.34L54.68 14.34Q55.50 14.55 56.21 14.55L56.21 14.55L56.21 14.55Q56.99 14.55 57.48 14.35L57.48 14.35L57.48 14.35Q57.97 14.15 58.25 13.88L58.25 13.88L58.25 13.88Q58.53 13.61 58.65 13.33L58.65 13.33L58.65 13.33Q58.76 13.05 58.77 12.88L58.77 12.88L58.77 12.88Q58.76 12.60 58.51 12.34L58.51 12.34L58.51 12.34Q58.27 12.08 57.86 11.84L57.86 11.84L57.86 11.84Q57.44 11.59 56.90 11.34L56.90 11.34L56.90 11.34Q56.35 11.09 55.76 10.84L55.76 10.84L55.76 10.84Q54.88 10.44 54.24 10.10L54.24 10.10L54.24 10.10Q53.61 9.76 53.19 9.40L53.19 9.40L53.19 9.40Q52.78 9.04 52.59 8.65L52.59 8.65L52.59 8.65Q52.40 8.26 52.40 7.76L52.40 7.76L52.40 7.76Q52.40 6.97 52.88 6.27L52.88 6.27L52.88 6.27Q53.35 5.57 54.25 5.21L54.25 5.21L54.25 5.21Q54.70 5.01 55.21 4.93L55.21 4.93L55.21 4.93Q55.72 4.84 56.21 4.84L56.21 4.84L56.21 4.84Q57.13 4.84 58.02 5.10L58.02 5.10L58.02 5.10Q58.90 5.35 59.78 5.74ZM69.76 6.69L69.76 6.69L69.76 6.69Q69.20 6.69 68.90 6.38L68.90 6.38L68.90 6.38Q68.60 6.06 68.60 5.61L68.60 5.61L68.60 5.61Q68.60 5.50 68.63 5.35L68.63 5.35L68.63 5.35Q68.67 5.19 68.73 5.08L68.73 5.08L68.73 5.08Q68.91 5.17 69.26 5.20L69.26 5.20L69.26 5.20Q69.62 5.24 70.10 5.24L70.10 5.24L70.10 5.24Q70.81 5.24 71.71 5.17L71.71 5.17L71.71 5.17Q72.62 5.11 73.44 5.04L73.44 5.04L73.44 5.04Q74.27 4.97 74.90 4.91L74.90 4.91L74.90 4.91Q75.53 4.84 75.71 4.84L75.71 4.84L75.71 4.84Q76.23 4.84 76.46 5.23L76.46 5.23L76.46 5.23Q76.69 5.61 76.80 6.26L76.80 6.26L76.80 6.26Q76.44 6.23 76.08 6.21L76.08 6.21L76.08 6.21Q75.73 6.19 75.47 6.19L75.47 6.19L75.47 6.19Q75.03 6.19 74.57 6.22L74.57 6.22L74.57 6.22Q74.12 6.24 73.65 6.30L73.65 6.30L73.65 6.30Q73.46 6.71 73.22 7.26L73.22 7.26L73.22 7.26Q72.98 7.81 72.75 8.41L72.75 8.41L72.75 8.41Q72.52 9.02 72.31 9.61L72.31 9.61L72.31 9.61Q72.10 10.21 71.95 10.68L71.95 10.68L71.95 10.68Q71.64 11.61 71.41 12.39L71.41 12.39L71.41 12.39Q71.18 13.17 71.00 13.85L71.00 13.85L71.00 13.85Q70.83 14.53 70.70 15.15L70.70 15.15L70.70 15.15Q70.57 15.76 70.48 16.35L70.48 16.35L70.48 16.35Q69.54 16.21 68.91 15.18L68.91 15.18L68.91 15.18Q69.02 14.74 69.18 14.23L69.18 14.23L69.18 14.23Q69.34 13.72 69.56 13.07L69.56 13.07L69.56 13.07Q69.78 12.42 70.07 11.59L70.07 11.59L70.07 11.59Q70.36 10.77 70.74 9.72L70.74 9.72L70.74 9.72Q70.88 9.32 71.04 8.90L71.04 8.90L71.04 8.90Q71.19 8.47 71.34 8.05L71.34 8.05L71.34 8.05Q71.48 7.63 71.60 7.24L71.60 7.24L71.60 7.24Q71.72 6.85 71.81 6.52L71.81 6.52L71.81 6.52Q71.22 6.59 70.69 6.64L70.69 6.64L70.69 6.64Q70.17 6.69 69.76 6.69ZM87.68 14.36L87.68 14.36L87.68 14.36Q87.68 13.78 87.88 12.85L87.88 12.85L87.88 12.85Q88.07 11.93 88.40 10.88L88.40 10.88L88.40 10.88Q87.47 10.95 86.54 11.06L86.54 11.06L86.54 11.06Q85.61 11.17 84.92 11.19L84.92 11.19L84.92 11.19Q84.29 12.66 83.92 13.89L83.92 13.89L83.92 13.89Q83.55 15.13 83.34 16.31L83.34 16.31L83.34 16.31Q82.81 16.18 82.46 15.87L82.46 15.87L82.46 15.87Q82.11 15.55 81.82 15.08L81.82 15.08L81.82 15.08Q81.93 14.85 82.07 14.50L82.07 14.50L82.07 14.50Q82.22 14.15 82.42 13.66L82.42 13.66L82.42 13.66Q82.63 13.16 82.89 12.50L82.89 12.50L82.89 12.50Q83.15 11.83 83.48 10.95L83.48 10.95L83.48 10.95Q83.02 10.75 82.87 10.40L82.87 10.40L82.87 10.40Q82.94 10.35 83.18 10.28L83.18 10.28L83.18 10.28Q83.43 10.22 83.79 10.15L83.79 10.15L83.97 9.70L83.97 9.70Q84.27 8.95 84.45 8.43L84.45 8.43L84.45 8.43Q84.64 7.91 84.78 7.41L84.78 7.41L84.78 7.41Q84.91 6.92 85.03 6.31L85.03 6.31L85.03 6.31Q85.15 5.71 85.32 4.79L85.32 4.79L85.32 4.79Q85.90 4.90 86.39 5.31L86.39 5.31L86.39 5.31Q86.87 5.71 87.22 6.29L87.22 6.29L87.22 6.29Q87.09 6.45 86.91 6.79L86.91 6.79L86.91 6.79Q86.73 7.13 86.51 7.59L86.51 7.59L86.51 7.59Q86.30 8.06 86.04 8.64L86.04 8.64L86.04 8.64Q85.79 9.23 85.50 9.87L85.50 9.87L85.50 9.87Q86.37 9.76 87.25 9.66L87.25 9.66L87.25 9.66Q88.14 9.56 88.83 9.52L88.83 9.52L88.83 9.52Q89.08 8.79 89.35 8.10L89.35 8.10L89.35 8.10Q89.63 7.41 89.89 6.83L89.89 6.83L89.89 6.83Q90.16 6.26 90.40 5.82L90.40 5.82L90.40 5.82Q90.65 5.39 90.85 5.18L90.85 5.18L90.85 5.18Q90.99 5.19 91.22 5.29L91.22 5.29L91.22 5.29Q91.45 5.38 91.69 5.50L91.69 5.50L91.69 5.50Q91.92 5.63 92.12 5.78L92.12 5.78L92.12 5.78Q92.32 5.92 92.39 6.05L92.39 6.05L92.39 6.05Q92.13 6.29 91.88 6.66L91.88 6.66L91.88 6.66Q91.63 7.04 91.38 7.53L91.38 7.53L91.38 7.53Q91.14 8.02 90.90 8.60L90.90 8.60L90.90 8.60Q90.66 9.17 90.45 9.79L90.45 9.79L90.45 9.79Q90.73 10.04 90.73 10.42L90.73 10.42L90.73 10.42Q90.73 10.68 90.62 10.91L90.62 10.91L90.62 10.91Q90.50 10.88 90.37 10.87L90.37 10.87L90.37 10.87Q90.24 10.86 90.10 10.85L90.10 10.85L90.10 10.85Q89.87 11.61 89.67 12.35L89.67 12.35L89.67 12.35Q89.47 13.09 89.34 13.76L89.34 13.76L89.34 13.76Q89.21 14.43 89.13 14.99L89.13 14.99L89.13 14.99Q89.05 15.55 89.05 15.93L89.05 15.93L89.05 15.93Q89.05 16.07 89.06 16.16L89.06 16.16L89.06 16.16Q89.07 16.24 89.08 16.30L89.08 16.30L89.08 16.30Q88.77 16.28 88.63 16.19L88.63 16.19L88.63 16.19Q88.49 16.10 88.42 16.00L88.42 16.00L88.42 16.00Q88.35 15.89 88.30 15.79L88.30 15.79L88.30 15.79Q88.24 15.68 88.12 15.62L88.12 15.62L88.12 15.62Q88.02 15.58 87.93 15.43L87.93 15.43L87.93 15.43Q87.85 15.27 87.79 15.08L87.79 15.08L87.79 15.08Q87.74 14.88 87.71 14.69L87.71 14.69L87.71 14.69Q87.68 14.49 87.68 14.36ZM104.45 9.21L104.45 9.21L104.45 9.21Q104.92 9.21 105.17 9.46L105.17 9.46L105.17 9.46Q105.43 9.72 105.43 10.16L105.43 10.16L105.43 10.16Q105.43 10.28 105.41 10.39L105.41 10.39L105.41 10.39Q105.39 10.51 105.36 10.60L105.36 10.60L105.36 10.60Q105.18 10.57 104.96 10.55L104.96 10.55L104.96 10.55Q104.73 10.53 104.43 10.53L104.43 10.53L104.43 10.53Q103.82 10.53 103.21 10.63L103.21 10.63L103.21 10.63Q102.59 10.74 102.03 10.81L102.03 10.81L102.03 10.81Q101.71 11.55 101.44 12.24L101.44 12.24L101.44 12.24Q101.18 12.94 100.99 13.51L100.99 13.51L100.99 13.51Q100.80 14.08 100.69 14.50L100.69 14.50L100.69 14.50Q100.59 14.92 100.58 15.13L100.58 15.13L100.58 15.13Q101.71 14.90 102.86 14.73L102.86 14.73L102.86 14.73Q104.02 14.56 105.29 14.48L105.29 14.48L105.29 14.48Q105.45 14.71 105.55 14.99L105.55 14.99L105.55 14.99Q105.66 15.27 105.66 15.60L105.66 15.60L105.66 15.60Q105.66 15.68 105.66 15.78L105.66 15.78L105.66 15.78Q105.66 15.88 105.63 15.97L105.63 15.97L105.63 15.97Q105.24 15.96 104.80 15.95L104.80 15.95L104.80 15.95Q104.37 15.95 103.67 15.95L103.67 15.95L103.67 15.95Q103.21 15.95 102.80 15.97L102.80 15.97L102.80 15.97Q102.38 15.99 101.96 16.03L101.96 16.03L101.96 16.03Q101.54 16.07 101.07 16.14L101.07 16.14L101.07 16.14Q100.60 16.21 100.02 16.31L100.02 16.31L100.02 16.31Q99.37 16.06 98.77 15.08L98.77 15.08L98.77 15.08Q99.01 14.57 99.44 13.54L99.44 13.54L99.44 13.54Q99.86 12.52 100.52 10.79L100.52 10.79L100.52 10.79Q99.89 10.60 99.69 10.09L99.69 10.09L99.69 10.09Q99.76 10.02 100.10 9.92L100.10 9.92L100.10 9.92Q100.44 9.81 100.93 9.70L100.93 9.70L100.93 9.70Q101.14 9.16 101.28 8.75L101.28 8.75L101.28 8.75Q101.43 8.34 101.54 7.99L101.54 7.99L101.54 7.99Q101.65 7.63 101.74 7.29L101.74 7.29L101.74 7.29Q101.84 6.94 101.92 6.54L101.92 6.54L101.92 6.54Q101.43 6.51 101.15 6.27L101.15 6.27L101.15 6.27Q100.87 6.02 100.87 5.63L100.87 5.63L100.87 5.63Q100.87 5.52 100.91 5.36L100.91 5.36L100.91 5.36Q100.94 5.21 100.98 5.10L100.98 5.10L100.98 5.10Q101.26 5.14 101.52 5.15L101.52 5.15L101.52 5.15Q101.78 5.17 102.20 5.17L102.20 5.17L102.20 5.17Q103.08 5.17 103.85 5.12L103.85 5.12L103.85 5.12Q104.62 5.07 105.24 5.01L105.24 5.01L105.24 5.01Q105.87 4.96 106.32 4.91L106.32 4.91L106.32 4.91Q106.76 4.86 107.00 4.86L107.00 4.86L107.00 4.86Q107.32 4.86 107.58 5.19L107.58 5.19L107.58 5.19Q107.83 5.53 107.95 6.15L107.95 6.15L107.95 6.15Q107.52 6.10 107.25 6.09L107.25 6.09L107.25 6.09Q106.97 6.08 106.76 6.08L106.76 6.08L106.76 6.08Q105.99 6.08 105.36 6.15L105.36 6.15L105.36 6.15Q104.72 6.23 104.13 6.31L104.13 6.31L104.13 6.31Q104.05 6.44 103.94 6.64L103.94 6.64L103.94 6.64Q103.84 6.83 103.67 7.18L103.67 7.18L103.67 7.18Q103.50 7.53 103.26 8.06L103.26 8.06L103.26 8.06Q103.01 8.60 102.66 9.39L102.66 9.39L102.66 9.39Q103.19 9.31 103.66 9.26L103.66 9.26L103.66 9.26Q104.13 9.21 104.45 9.21ZM119.98 16.21L119.98 16.21L119.98 16.21Q119.95 16.23 119.92 16.23L119.92 16.23L119.92 16.23Q119.90 16.23 119.81 16.23L119.81 16.23L119.81 16.23Q119.62 16.23 119.36 16.16L119.36 16.16L119.36 16.16Q119.10 16.10 118.85 16.01L118.85 16.01L118.85 16.01Q118.61 15.92 118.43 15.81L118.43 15.81L118.43 15.81Q118.26 15.69 118.22 15.61L118.22 15.61L118.22 15.61Q118.20 15.41 118.20 15.20L118.20 15.20L118.20 15.20Q118.20 14.99 118.20 14.80L118.20 14.80L118.20 14.80Q118.20 13.23 118.43 11.52L118.43 11.52L118.43 11.52Q118.66 9.81 119.20 7.83L119.20 7.83L119.20 7.83Q119.25 7.63 119.31 7.33L119.31 7.33L119.31 7.33Q119.38 7.03 119.45 6.68L119.45 6.68L119.45 6.68Q119.11 6.94 118.65 7.53L118.65 7.53L118.65 7.53Q118.19 8.11 117.68 8.90L117.68 8.90L117.68 8.90Q117.17 9.69 116.65 10.63L116.65 10.63L116.65 10.63Q116.14 11.58 115.72 12.55L115.72 12.55L115.72 12.55Q115.30 13.52 115.00 14.48L115.00 14.48L115.00 14.48Q114.70 15.43 114.63 16.24L114.63 16.24L114.63 16.24Q113.96 16.04 113.70 15.85L113.70 15.85L113.70 15.85Q113.44 15.65 113.44 15.37L113.44 15.37L113.44 15.37Q113.44 15.12 113.60 14.66L113.60 14.66L113.60 14.66Q113.75 14.20 114.03 13.57L114.03 13.57L114.03 13.57Q114.31 12.94 114.72 12.16L114.72 12.16L114.72 12.16Q115.12 11.38 115.61 10.49L115.61 10.49L115.61 10.49Q116.17 9.46 116.71 8.57L116.71 8.57L116.71 8.57Q117.25 7.67 117.77 6.94L117.77 6.94L117.77 6.94Q118.29 6.22 118.78 5.68L118.78 5.68L118.78 5.68Q119.28 5.15 119.77 4.87L119.77 4.87L119.77 4.87Q119.97 4.87 120.29 4.97L120.29 4.97L120.29 4.97Q120.62 5.07 120.94 5.21L120.94 5.21L120.94 5.21Q121.25 5.35 121.50 5.49L121.50 5.49L121.50 5.49Q121.74 5.64 121.77 5.74L121.77 5.74L121.77 5.74Q121.58 6.13 121.31 6.92L121.31 6.92L121.31 6.92Q121.04 7.70 120.77 8.69L120.77 8.69L120.77 8.69Q120.50 9.69 120.25 10.80L120.25 10.80L120.25 10.80Q120.01 11.91 119.87 12.94L119.87 12.94L119.87 12.94Q120.19 12.17 120.62 11.33L120.62 11.33L120.62 11.33Q121.04 10.50 121.52 9.68L121.52 9.68L121.52 9.68Q122.00 8.86 122.49 8.09L122.49 8.09L122.49 8.09Q122.99 7.32 123.47 6.69L123.47 6.69L123.47 6.69Q123.94 6.05 124.35 5.57L124.35 5.57L124.35 5.57Q124.77 5.10 125.09 4.87L125.09 4.87L125.09 4.87Q125.29 4.87 125.61 4.97L125.61 4.97L125.61 4.97Q125.94 5.07 126.26 5.21L126.26 5.21L126.26 5.21Q126.57 5.35 126.82 5.49L126.82 5.49L126.82 5.49Q127.06 5.64 127.09 5.74L127.09 5.74L127.09 5.74Q126.64 6.54 126.31 7.69L126.31 7.69L126.31 7.69Q125.97 8.83 125.74 10.09L125.74 10.09L125.74 10.09Q125.51 11.35 125.39 12.59L125.39 12.59L125.39 12.59Q125.27 13.83 125.27 14.81L125.27 14.81L125.27 14.81Q125.27 15.13 125.27 15.48L125.27 15.48L125.27 15.48Q125.27 15.83 125.30 16.21L125.30 16.21L125.30 16.21Q125.10 16.21 124.83 16.16L124.83 16.16L124.83 16.16Q124.56 16.11 124.30 16.03L124.30 16.03L124.30 16.03Q124.04 15.95 123.83 15.84L123.83 15.84L123.83 15.84Q123.62 15.74 123.54 15.61L123.54 15.61L123.54 15.61Q123.52 15.41 123.52 15.20L123.52 15.20L123.52 15.20Q123.52 14.99 123.52 14.80L123.52 14.80L123.52 14.80Q123.52 13.23 123.75 11.52L123.75 11.52L123.75 11.52Q123.98 9.81 124.52 7.83L124.52 7.83L124.52 7.83Q124.57 7.63 124.64 7.29L124.64 7.29L124.64 7.29Q124.71 6.96 124.78 6.59L124.78 6.59L124.78 6.59Q124.39 6.79 123.89 7.34L123.89 7.34L123.89 7.34Q123.40 7.90 122.88 8.69L122.88 8.69L122.88 8.69Q122.37 9.48 121.88 10.44L121.88 10.44L121.88 10.44Q121.38 11.41 120.98 12.41L120.98 12.41L120.98 12.41Q120.58 13.41 120.31 14.40L120.31 14.40L120.31 14.40Q120.04 15.39 119.98 16.21Z"></path></g></svg>