<svg data-v-fde0c5aa="" xmlns="http://www.w3.org/2000/svg" viewBox="0 0 300 300" class="font"><!----><defs data-v-fde0c5aa=""><!----></defs><rect data-v-fde0c5aa="" fill="#F0ECEA" x="0" y="0" width="300px" height="300px" class="logo-background-square"></rect><defs data-v-fde0c5aa=""><linearGradient data-v-fde0c5aa="" gradientTransform="rotate(25)" id="ffc8ad3e-d0ca-4504-b1f3-669e159b28bc" x1="0%" y1="0%" x2="100%" y2="0%"><stop data-v-fde0c5aa="" offset="0%" stop-color="#693F24" stop-opacity="1"></stop><stop data-v-fde0c5aa="" offset="100%" stop-color="#9C9289" stop-opacity="1"></stop></linearGradient></defs><g data-v-fde0c5aa="" id="4d58767e-26be-47b3-acc8-1e9bd5c9a6a6" fill="url(#ffc8ad3e-d0ca-4504-b1f3-669e159b28bc)" transform="matrix(4.542638831585725,0,0,4.542638831585725,34.730539106987486,103.93764285422847)"><path d="M1.16 16.65L2.76 16.65L2.76 14.36L2.72 13.09C3.28 13.64 3.98 13.96 4.61 13.96C6.20 13.96 7.66 12.53 7.66 10.09C7.66 7.88 6.64 6.45 4.86 6.45C4.06 6.45 3.23 6.89 2.65 7.46L2.60 7.46L2.48 6.64L1.16 6.64ZM4.27 12.63C3.86 12.63 3.28 12.43 2.76 11.94L2.76 8.68C3.33 8.06 3.88 7.78 4.41 7.78C5.52 7.78 6.01 8.67 6.01 10.11C6.01 11.75 5.26 12.63 4.27 12.63ZM13.02 13.96C14.03 13.96 14.98 13.59 15.71 13.12L15.16 12.11C14.55 12.49 13.94 12.70 13.23 12.70C11.98 12.70 11.02 11.96 10.92 10.64L15.92 10.64C15.95 10.46 15.99 10.15 15.99 9.84C15.99 7.87 14.85 6.45 12.81 6.45C11.00 6.45 9.27 7.88 9.27 10.21C9.27 12.56 10.93 13.96 13.02 13.96ZM10.91 9.53C11.09 8.34 11.91 7.70 12.84 7.70C13.93 7.70 14.52 8.39 14.52 9.53ZM21 13.96C22.82 13.96 24.46 12.59 24.46 10.21C24.46 7.83 22.82 6.45 21 6.45C19.19 6.45 17.56 7.83 17.56 10.21C17.56 12.59 19.19 13.96 21 13.96ZM21 12.64C19.88 12.64 19.21 11.68 19.21 10.21C19.21 8.75 19.88 7.77 21 7.77C22.13 7.77 22.81 8.75 22.81 10.21C22.81 11.68 22.13 12.64 21 12.64ZM26.36 16.65L27.96 16.65L27.96 14.36L27.92 13.09C28.48 13.64 29.18 13.96 29.81 13.96C31.40 13.96 32.86 12.53 32.86 10.09C32.86 7.88 31.84 6.45 30.06 6.45C29.26 6.45 28.43 6.89 27.85 7.46L27.80 7.46L27.68 6.64L26.36 6.64ZM29.47 12.63C29.06 12.63 28.48 12.43 27.96 11.94L27.96 8.68C28.53 8.06 29.08 7.78 29.61 7.78C30.72 7.78 31.21 8.67 31.21 10.11C31.21 11.75 30.46 12.63 29.47 12.63ZM39.21 13.96C40.01 13.96 40.50 13.78 41.17 13.54L40.80 12.35C40.32 12.56 39.96 12.64 39.61 12.64C38.91 12.64 38.37 12.26 38.37 11.30L38.37 3.63L34.61 3.63L34.61 4.90L36.78 4.90L36.78 11.20C36.78 12.95 37.62 13.96 39.21 13.96ZM46.62 13.96C47.63 13.96 48.58 13.59 49.31 13.12L48.76 12.11C48.15 12.49 47.54 12.70 46.83 12.70C45.58 12.70 44.62 11.96 44.52 10.64L49.52 10.64C49.55 10.46 49.59 10.15 49.59 9.84C49.59 7.87 48.45 6.45 46.41 6.45C44.60 6.45 42.87 7.88 42.87 10.21C42.87 12.56 44.53 13.96 46.62 13.96ZM44.51 9.53C44.69 8.34 45.51 7.70 46.44 7.70C47.53 7.70 48.12 8.39 48.12 9.53Z"></path></g><!----><!----></svg>